<?xml version="1.0" encoding="iso-8859-1"?>
<!-- Uploaded to: SVG Repo, www.svgrepo.com, Transformed by: SVG Repo Tools -->
<!DOCTYPE svg PUBLIC "-//W3C//DTD SVG 1.1//EN" "http://www.w3.org/Graphics/SVG/1.1/DTD/svg11.dtd">
<svg fill="#e6232a" height="800px" width="800px" version="1.1" id="Capa_1" xmlns="http://www.w3.org/2000/svg" xmlns:xlink="http://www.w3.org/1999/xlink" 
	 viewBox="0 0 460 460" xml:space="preserve">
<path d="M392.634,67.365C349.193,23.925,291.435,0,230,0C169.149,0,111.914,23.484,68.617,66.144
	c-0.473,0.331-0.929,0.699-1.352,1.122s-0.791,0.878-1.122,1.352C23.484,111.915,0,169.149,0,230
	c0,61.369,23.875,119.067,67.227,162.493c0.013,0.013,0.023,0.027,0.036,0.04c0.008,0.008,0.017,0.015,0.025,0.022
	c0.026,0.026,0.051,0.053,0.077,0.079C110.807,436.076,168.565,460,230,460s119.193-23.924,162.634-67.366
	C436.076,349.194,460,291.435,460,230S436.076,110.807,392.634,67.365z M385.326,371.185L244.094,229.952L385.324,88.813
	C419.277,126.133,440,175.692,440,230C440,284.308,419.278,333.866,385.326,371.185z M371.182,74.672L229.953,215.811L88.816,74.674
	C126.135,40.722,175.693,20,230,20C284.306,20,333.864,40.721,371.182,74.672z M74.674,88.816l141.132,141.132L74.581,371.083
	C40.684,333.776,20,284.258,20,230C20,175.693,40.722,126.135,74.674,88.816z M88.715,385.233l141.233-141.142l141.236,141.237
	C333.865,419.279,284.307,440,230,440C175.643,440,126.045,419.24,88.715,385.233z"/>
<g>
</g>
<g>
</g>
<g>
</g>
<g>
</g>
<g>
</g>
<g>
</g>
<g>
</g>
<g>
</g>
<g>
</g>
<g>
</g>
<g>
</g>
<g>
</g>
<g>
</g>
<g>
</g>
<g>
</g>
</svg>